<svg xmlns="http://www.w3.org/2000/svg" xmlns:xlink="http://www.w3.org/1999/xlink" viewBox="0 0 207.5 192.63"><defs><style>.cls-1{fill:none;}.cls-2{isolation:isolate;}.cls-3{clip-path:url(#clip-path);}.cls-4{fill:url(#radial-gradient);}.cls-5{clip-path:url(#clip-path-2);}.cls-6{fill:url(#radial-gradient-2);}.cls-7{fill:#c13036;}.cls-8{fill:#fff;}.cls-9{fill:#b2b2b2;}.cls-10{clip-path:url(#clip-path-3);}.cls-11{fill:#88291e;}.cls-12{fill:#98292d;}.cls-13{clip-path:url(#clip-path-4);}.cls-14{fill:#b52c2e;}.cls-15{clip-path:url(#clip-path-5);}.cls-16{fill:url(#linear-gradient);}.cls-17{fill:#70b5da;}.cls-18{clip-path:url(#clip-path-6);}.cls-19{fill:url(#linear-gradient-2);}.cls-20{fill:#00699f;}.cls-21{fill:#003f6b;}.cls-22{clip-path:url(#clip-path-7);}.cls-23{fill:url(#linear-gradient-3);}.cls-24{fill:#debf6a;}.cls-25{opacity:0.31;mix-blend-mode:multiply;}.cls-26{clip-path:url(#clip-path-8);}.cls-27{fill:#927d44;}.cls-28{fill:#efdd8b;}.cls-29{fill:#0e3b60;}</style><clipPath id="clip-path"><path class="cls-1" d="M31.23,89.15h-.86a2.13,2.13,0,0,0,.86,0m-8.46,0h7.6c-.49-.12-1-.5-.89-1.57,0,0-.9-.09-2-.09-2,0-4.61.26-4.67,1.65"/></clipPath><radialGradient id="radial-gradient" cx="-1354.82" cy="-6.38" r="0.53" gradientTransform="matrix(5.74, 0, 0, -5.74, 7802.16, 51.75)" gradientUnits="userSpaceOnUse"><stop offset="0" stop-color="#f6f2e6"/><stop offset="0.18" stop-color="#f6f2e6"/><stop offset="0.59" stop-color="#e5d591"/><stop offset="1" stop-color="#af831f"/></radialGradient><clipPath id="clip-path-2"><path class="cls-1" d="M172.76,83.89,184.5,84a17.08,17.08,0,0,0-4.53-.37c-3.34,0-7.21.24-7.21.24"/></clipPath><radialGradient id="radial-gradient-2" cx="-1443.35" cy="6.42" r="0.53" gradientTransform="matrix(7.8, 0, 0, -7.8, 11436.6, 133.87)" xlink:href="#radial-gradient"/><clipPath id="clip-path-3"><path class="cls-1" d="M158.87,13.27l-11.33,22h4.79s1.75-1.85,9.12-1.67,7.68,1.65,7.68,1.65l2.85,0,.67.85c1.33-.65.87-1.57.87-1.57L161.64,13.15a7.25,7.25,0,0,0-1.23-.11,4.48,4.48,0,0,0-1.54.23"/></clipPath><clipPath id="clip-path-4"><path class="cls-1" d="M52.45.66,41.15,21.79c1.6,2.95,12.47,2.83,12.47,2.83,1.84.67,8.78.12,8.78.12,6.57-1,3.87-3.56,3.87-3.56L55.52.78A3.78,3.78,0,0,0,54,.17a4.32,4.32,0,0,0-1.53.49"/></clipPath><clipPath id="clip-path-5"><path class="cls-1" d="M85.25,12.37a6,6,0,0,0-6,5.29c-4.07-1-4.72,2.53-4.72,2.53-3.25-.66-6.34,3.89-4.31,7.56,2.2,4,4.72,3.22,7.24,2.45,0,1.42.09,2.85,3.34,3.41s4.15-.81,5-2.19c0,1.26,0,2.52,5,3.25a5.78,5.78,0,0,0,6.51-3.33c3.58,1.22,4.81-1.39,4.81-1.39,3,.08,5.21-4.47,3.25-7.08s-3.82-2.28-5.7-1.95c.37-1.18.74-2.36-1.87-4.72s-4.43-1.47-6.26-.57c-.59-1.64-1.17-3.27-5.62-3.27h-.65"/></clipPath><linearGradient id="linear-gradient" x1="-1612.35" y1="97.72" x2="-1611.81" y2="97.72" gradientTransform="matrix(0, 27.92, 27.92, 0, -2641.01, 45038.6)" gradientUnits="userSpaceOnUse"><stop offset="0" stop-color="#e8f2f8"/><stop offset="1" stop-color="#b8d6eb"/></linearGradient><clipPath id="clip-path-6"><path class="cls-1" d="M185.28,102.21c-5.62,1.2-5.83,3.26-6,5.31-2.27-.48-4.53-1-6.77,2.35s-1.5,4.53-.77,5.73c-2.16.15-4.31.31-5.76,3.72s2.23,7.85,5.54,6.93c0,0,2.06,2.54,5.68.21a6.6,6.6,0,0,0,8.11,1.91c5.29-2.17,4.94-3.57,4.6-5,1.36,1.28,2.73,2.57,6.17,1s3.1-3.11,2.75-4.7c3,.17,6,.33,7.34-4.68,1.23-4.62-3.42-8.79-6.84-7.18,0,0-1.68-3.69-5.91-1.49a6.81,6.81,0,0,0-6.26-4.4,8.83,8.83,0,0,0-1.84.2"/></clipPath><linearGradient id="linear-gradient-2" x1="-1619.01" y1="74.6" x2="-1618.48" y2="74.6" gradientTransform="matrix(0, 46.28, 46.28, 0, -3266.78, 75036.93)" xlink:href="#linear-gradient"/><clipPath id="clip-path-7"><path class="cls-1" d="M24.06,120.91a6,6,0,0,0-6,5.3c-4.06-1-4.72,2.52-4.72,2.52C10.07,128.08,7,132.62,9,136.3c2.2,4,4.72,3.21,7.24,2.44,0,1.42.09,2.85,3.34,3.42s4.15-.82,5.05-2.2c0,1.26,0,2.52,5,3.26a5.79,5.79,0,0,0,6.51-3.34c3.58,1.22,4.8-1.39,4.8-1.39,3,.09,5.21-4.47,3.26-7.08s-3.83-2.28-5.7-1.95c.37-1.18.74-2.36-1.87-4.72s-4.43-1.47-6.27-.57c-.58-1.63-1.16-3.27-5.61-3.27h-.66"/></clipPath><linearGradient id="linear-gradient-3" x1="-1615.77" y1="99.65" x2="-1615.23" y2="99.65" gradientTransform="matrix(0, 27.92, 27.92, 0, -2756.01, 45242.6)" xlink:href="#linear-gradient"/><clipPath id="clip-path-8"><rect class="cls-1" x="149.77" y="136.29" width="23.61" height="43.71"/></clipPath></defs><title>skypark_logo</title><g class="cls-2"><g id="Capa_1" data-name="Capa 1"><g class="cls-3"><rect class="cls-4" x="22.77" y="87.49" width="8.47" height="1.76"/></g><g class="cls-5"><rect class="cls-6" x="172.76" y="83.65" width="11.73" height="0.36"/></g><path class="cls-7" d="M152.33,35.24h-4.79l11.33-22a5.25,5.25,0,0,1,2.77-.12l11.88,21.32s.46.92-.87,1.57l-.67-.85-2.85,0s-.31-1.46-7.68-1.65-9.12,1.67-9.12,1.67"/><path class="cls-8" d="M151.94,35.14V50.91h16.95V34.72c-8.48-3.22-16.95.42-16.95.42m13.63,13h-7.92V41.51a4.12,4.12,0,0,1,3.92-2.37,3.67,3.67,0,0,1,4,3.06Z"/><path class="cls-9" d="M162.54,37.46a4.89,4.89,0,0,0-4.65,3.79,4,4,0,0,1,3.73-2.11,3.63,3.63,0,0,1,3.95,3.06v5.94h-7.74v.19l9-.18v-7s-1-3.68-4.33-3.68"/><g class="cls-10"><path class="cls-11" d="M161.05,10.8l8.08,24.42,7.89,3s-7.12-26.29-16-27.39"/><path class="cls-12" d="M160.81,32.54s9.95-.06,12.53,1.35.43,2,.43,2-6.14-1-7.13-1.17-8.9-.37-8.9-.37l-6.88,1.29-4.18.62.86-1.08a34.15,34.15,0,0,1,13.27-2.61"/></g><path class="cls-7" d="M53.62,24.62s-10.87.12-12.47-2.83L52.45.66A4.32,4.32,0,0,1,54,.17a3.78,3.78,0,0,1,1.54.61l10.75,20.4s2.7,2.58-3.87,3.56c0,0-6.94.55-8.78-.12"/><path class="cls-12" d="M41.15,22s.3-4.3,13.08-3.26c0,0,9.46.93,12.29,2.77,0,0,2.64,4.48-12.23,3.38,0,0-12.1-.25-13.14-2.89"/><g class="cls-13"><path class="cls-14" d="M53.37-1.24l4.79,20.73s8,2.58,8,4.42S70,25.2,68.94,21.33,58-1.89,53.37-1.24"/></g><path class="cls-8" d="M62.39,22c-.11-1.29-3.85-2.27-8.44-2.27s-8.32,1-8.44,2.27h-.27v18.8H62.19V22Z"/><path class="cls-9" d="M48.93,32.48V28.8s1.6-3.57,4.24-3.57a4.61,4.61,0,0,1,4.19,3.44l-6.28,5Z"/><g class="cls-15"><rect class="cls-16" x="68.16" y="12.36" width="39.14" height="23.04"/></g><path class="cls-17" d="M169.08,50.78,104.48,25.4C64.36,9.64,21.33,41.29,24.42,84.28q1.81,25.38,3.65,50.76c3,41.68,49.82,65,84.91,42.3l64.61-41.83c32.59-21.1,27.63-70.53-8.51-84.73"/><g class="cls-18"><rect class="cls-19" x="164.5" y="102.01" width="42.86" height="28.53"/></g><path class="cls-20" d="M105,22.74a17.59,17.59,0,0,1,1.92.2l13.76,1.7,11.4,1.41a1.17,1.17,0,0,1,.35.08.69.69,0,0,1-.14.39l-8.92,17.63Q120.6,49.6,117.86,55c-.06.11-.17.21-.12.36h0c-.09,0-.1.06-.14.1s-.06.22-.1.33-.17.23-.23.36q-4.95,9.75-9.88,19.52l-.12.23c-.07.12-.07.22.06.3l.22.15,16.59,11.75,13.75,9.74.38.29a3.15,3.15,0,0,1-.51.52L119.24,116c-.11.1-.19.26-.38.27a.39.39,0,0,0-.15-.21c-.49-.42-1-.83-1.46-1.28s-1.29-1.07-1.9-1.65-1.29-1.11-1.94-1.68c-1.29-1.13-2.6-2.24-3.89-3.39-.62-.56-1.28-1.08-1.9-1.65s-1.58-1.33-2.33-2c-.49-.44-1-.87-1.5-1.3-1.34-1.17-2.7-2.33-4-3.51-.59-.53-1.24-1-1.8-1.57a.94.94,0,0,0-.53-.35,1.43,1.43,0,0,0,0,.16c.07.79.15,1.58.22,2.37a.53.53,0,0,0,.2.38.15.15,0,0,0-.1.14c0,.1,0,.2,0,.31l.87,9.5c.19,2.11.38,4.23.58,6.34,0,.39,0,.4-.35.48q-1.82.39-3.63.75c-1.52.32-3,.63-4.55.93l-4.37.89c-1.51.31-3,.63-4.54.93-1.35.28-2.71.54-4.07.81,0-.24-.12-.45-.14-.69-.08-.65-.12-1.31-.26-2s-.14-1.32-.27-2-.14-1.34-.28-2-.14-1.28-.27-1.92-.14-1.37-.28-2-.14-1.31-.28-2-.14-1.31-.27-2-.14-1.34-.28-2-.14-1.29-.27-1.93-.14-1.37-.28-2-.14-1.31-.27-2-.15-1.31-.28-2-.13-1.34-.28-2-.13-1.29-.26-1.92-.15-1.38-.29-2.06-.17-1.31-.27-2c-.19-1.34-.35-2.68-.57-4-.1-.6-.15-1.22-.24-1.83-.2-1.37-.36-2.74-.59-4.1-.1-.63-.16-1.26-.25-1.88-.19-1.34-.35-2.68-.56-4-.11-.65-.17-1.31-.26-2-.12-.92-.29-1.83-.38-2.76S70,66.92,70,66a.28.28,0,0,0,0-.09c-.25-.82-.19-1.68-.39-2.52-.14-.58-.16-1.19-.25-1.79-.2-1.39-.37-2.79-.59-4.19-.09-.59-.15-1.19-.24-1.79-.19-1.35-.36-2.71-.57-4.06-.11-.63-.13-1.28-.26-1.92s-.14-1.31-.28-2-.13-1.34-.28-2-.17-1.28-.26-1.92c-.19-1.37-.36-2.74-.58-4.1-.1-.61-.13-1.23-.25-1.84s-.15-1.4-.29-2.09-.18-1.31-.27-2c-.19-1.32-.35-2.65-.56-4-.11-.62-.15-1.25-.25-1.88-.17-1-.2-2-.4-3a1.2,1.2,0,0,1,.52-.12l5.94-.85,8.87-1.29c2.28-.34,4.57-.66,6.86-1,1.45-.22,2.91-.4,4.37-.57.39,0,.42,0,.46.38.27,2.36.52,4.72.79,7.07.23,2,.47,4,.71,5.93.08.76.15,1.52.24,2.28q.38,3.18.74,6.36c.11.91.2,1.82.29,2.73,0,.64.16,1.28.25,1.92.13,1,.2,2.05.31,3.07a1,1,0,0,0,.06.4c.12,0,.14,0,.16-.1.43-1.22.86-2.44,1.3-3.66.64-1.78,1.3-3.56,1.94-5.35l1.1-3q1-2.71,2-5.43,1.28-3.49,2.54-7l1.29-3.52a.86.86,0,0,0,.06-.35M93.42,62.47h-.07c0-.23-.09-.46-.12-.69-.17-1.46-.3-2.93-.49-4.39s-.3-2.87-.5-4.3-.3-2.9-.5-4.35-.3-2.9-.5-4.34-.3-2.9-.5-4.35-.3-2.87-.49-4.3-.32-2.93-.5-4.39c-.28-2.33-.53-4.66-.79-7,0-.4,0-.41-.46-.35l-4,.6-7.91,1.14-6.52,1c-.81.12-1.63.22-2.44.35-.46.07-.46.08-.4.52l.24,1.75c.27,2,.55,4,.82,6s.56,4,.83,5.95.56,4,.83,6,.55,4,.83,5.95.55,4,.82,6,.56,4,.83,6,.55,4,.83,6,.55,4,.83,5.95.55,4,.82,6,.55,4,.83,6,.55,4,.83,6,.55,3.94.82,5.91.55,4,.83,6c.16,1.18.31,2.37.48,3.55q.48,3.47,1,7c0,.39.11.79.16,1.18,0,.17.1.23.27.19L82.6,118l4.46-.92,4.37-.88,4.59-.94c.41-.09.42-.08.38-.51L96,110.14l-1.68-18c0-.12,0-.23,0-.35a.55.55,0,0,1,0-.37,2.5,2.5,0,0,1,.51.4l6.6,5.74c1.69,1.48,3.38,2.94,5.07,4.41l6.57,5.72,5.53,4.81c.28.24.28.24.56,0l5.91-5.53,8.81-8.25c.31-.29.31-.29,0-.54l-3.38-2.41c-4.64-3.28-9.26-6.56-13.9-9.83L106,78.5l-1.92-1.36c-.26-.18-.25-.19-.11-.49l0-.08,10.8-21.33q6.66-13.18,13.33-26.35a2.62,2.62,0,0,0,.27-.59c-.09-.12-.22-.09-.33-.11l-8.77-1.08-11.92-1.48c-.62-.07-.62-.07-.83.5L98.93,47.28l-4.2,11.59c-.43,1.2-.87,2.4-1.31,3.6"/><path class="cls-21" d="M72.64,105.62a11.92,11.92,0,0,1,0-1.58c0-.48,0-1,0-1.45s0-.88-.06-1.31a24.42,24.42,0,0,0-.41-2.83c-.07-.36-.12-.72-.18-1.08a22.58,22.58,0,0,0-1-3.6,2.1,2.1,0,0,1-.13-.55c-.44-3.08-.87-6.15-1.3-9.23-.33-2.36-.64-4.72-1-7.09s-.67-4.75-1-7.12c-.41-2.94-.8-5.87-1.21-8.8q-.54-4-1.1-7.92l-1.11-8q-.54-3.94-1.1-7.91c-.37-2.66-.73-5.31-1.1-8-.17-1.21-.35-2.42-.51-3.63-.05-.34-.05-.35.29-.39.8-.09,1.59-.27,2.4-.32.2,1,.23,2,.4,3,.1.63.14,1.26.25,1.88.21,1.32.37,2.65.56,4,.09.66.14,1.32.27,2s.15,1.4.29,2.09.15,1.23.25,1.84c.22,1.36.39,2.73.58,4.1.09.64.13,1.29.26,1.92s.15,1.35.28,2,.14,1.32.28,2,.15,1.29.26,1.92c.21,1.35.38,2.71.57,4.06.09.6.15,1.2.24,1.79.22,1.4.39,2.8.59,4.19.09.6.11,1.21.25,1.79.2.84.14,1.7.39,2.53A.19.19,0,0,1,70,66c0,.92.27,1.81.35,2.71s.26,1.84.38,2.76c.09.65.15,1.31.26,2,.21,1.34.37,2.68.56,4,.09.62.15,1.25.25,1.88.23,1.36.39,2.73.59,4.1.09.61.14,1.23.24,1.83.22,1.34.38,2.68.57,4,.1.65.14,1.32.27,2s.15,1.38.29,2.06.13,1.29.26,1.92.15,1.34.28,2,.14,1.32.28,2,.13,1.32.27,2,.14,1.38.28,2,.14,1.29.27,1.93.14,1.34.28,2,.14,1.32.27,2,.14,1.32.28,2,.14,1.38.28,2,.14,1.29.27,1.92.14,1.35.28,2,.14,1.32.27,2,.18,1.31.26,2c0,.24.16.45.14.69-.59.13-1.19.14-1.79.22l-.66.07c-.31,0-.32,0-.37-.33l-.33-2.4-.81-5.87q-.5-3.59-1-7.17c0-.19,0-.38-.08-.56"/><path class="cls-21" d="M105,22.74a.86.86,0,0,1-.06.35l-1.29,3.52q-1.26,3.51-2.54,7-1,2.72-2,5.43l-1.1,3c-.64,1.79-1.3,3.57-1.94,5.35-.44,1.22-.87,2.44-1.3,3.66,0,0,0,.12-.15.1a.87.87,0,0,1-.07-.4c-.11-1-.18-2-.31-3.07-.09-.64-.22-1.28-.25-1.92a1,1,0,0,0,.23-.47l6.39-17.63c.52-1.44,1-2.88,1.55-4.32a.52.52,0,0,1,.52-.42c.76-.05,1.52-.14,2.29-.22"/><path class="cls-21" d="M97.82,100.58a.53.53,0,0,1-.2-.38c-.07-.79-.15-1.58-.22-2.37,0,0,0-.09,0-.16A.94.94,0,0,1,98,98c.56.57,1.21,1,1.8,1.57,1.33,1.18,2.69,2.34,4,3.51.5.43,1,.86,1.5,1.3.75.7,1.57,1.34,2.33,2s1.28,1.09,1.9,1.65c1.29,1.15,2.6,2.26,3.89,3.39.65.57,1.32,1.09,1.94,1.68s1.29,1.08,1.9,1.65,1,.86,1.46,1.28a.39.39,0,0,1,.15.21l-2.41.28a.51.51,0,0,1-.44-.14l-5.37-4.67-6.1-5.31-6.47-5.62-.25-.25"/><path class="cls-8" d="M93.42,62.47c.44-1.2.88-2.4,1.31-3.6l4.2-11.59,7.65-21.15c.21-.57.21-.57.83-.5l11.92,1.48,8.77,1.08c.11,0,.24,0,.33.11a2.62,2.62,0,0,1-.27.59q-6.66,13.17-13.33,26.35L104,76.57l0,.08c-.14.3-.15.31.11.49L106,78.5,116.55,86c4.64,3.27,9.26,6.55,13.9,9.83l3.38,2.41c.36.25.36.25,0,.54L125.07,107l-5.91,5.53c-.28.26-.28.26-.56,0l-5.53-4.81L106.5,102c-1.69-1.47-3.38-2.93-5.07-4.41l-6.6-5.74a2.5,2.5,0,0,0-.51-.4.55.55,0,0,0,0,.37c0,.12,0,.23,0,.35l1.68,18,.42,4.63c0,.43,0,.42-.38.51l-4.59.94-4.37.88L82.6,118l-2.51.52c-.17,0-.24,0-.27-.19,0-.39-.11-.79-.16-1.18q-.5-3.48-1-7c-.17-1.18-.32-2.37-.48-3.55-.28-2-.55-4-.83-6s-.55-3.94-.82-5.91-.55-4-.83-6-.55-4-.83-6-.55-4-.82-6-.55-4-.83-5.95-.55-4-.83-6-.55-4-.83-6-.55-4-.82-6-.55-4-.83-5.95-.55-4-.83-6-.55-4-.83-5.95-.55-4-.82-6l-.24-1.75c-.06-.44-.06-.45.4-.52.81-.13,1.63-.23,2.44-.35l6.52-1,7.91-1.14,4-.6c.42-.06.42-.05.46.35.26,2.32.51,4.65.79,7,.18,1.46.3,2.93.5,4.39s.3,2.87.49,4.3.31,2.9.5,4.35.31,2.9.5,4.34.31,2.9.5,4.35.3,2.87.5,4.3.32,2.93.49,4.39c0,.23.08.46.12.69h.07"/><path class="cls-8" d="M120.74,57.54c0,.12,0,.14-.14.1s.06-.11.14-.1"/><path class="cls-20" d="M145.76,34.44c.22-.06.28.14.37.26l4.38,5.14,14.12,16.58c.13.14.21.33.41.39a8.6,8.6,0,0,0,1.13,1.42,1.9,1.9,0,0,0,.61.62c.12-.07.14-.19.19-.3.23-.53.45-1.07.67-1.6.83-1.91,1.64-3.82,2.45-5.73s1.65-3.85,2.47-5.78L175,39.79c.81-1.88,1.63-3.76,2.42-5.65.51-1.24,1.05-2.46,1.57-3.69a1.34,1.34,0,0,1,.55.16l13.76,5.24,9.51,3.62.12.05c.35.14.37.16.18.51l-1.6,3q-6.67,12.66-13.36,25.33L171.89,99.16c-5.47,10.37-7.63,15.35-13.11,25.72-.1.2-.12.5-.42.57a.57.57,0,0,0-.24-.19l-4.73-2.78q-4.06-2.37-8.15-4.72-3.37-2-6.77-3.94l-3.67-2.13c-.27-.16-.27-.19-.12-.45s.5-.81.75-1.21q1.19-1.94,2.35-3.87c1.65-2.71,0,0,1.62-2.74.76-1.24,1.51-2.48,2.26-3.72l5.16-8.52c.73-1.2,1.47-2.4,2.2-3.61,1.29-2.14,2.59-4.28,3.88-6.43.21-.34.21-.35,0-.65a1.07,1.07,0,0,0-.18-.19c-.68-.66-1.39-1.29-2.05-2s-1.45-1.35-2.13-2.07-1.37-1.26-2-1.94-1.38-1.29-2-2S143,71,142.31,70.28s-1.36-1.27-2-2-1.4-1.31-2.07-2-1.41-1.31-2.07-2-1.41-1.31-2.08-2-1.36-1.26-2-1.94-1.45-1.35-2.14-2.07-1.36-1.27-2-1.94-1.48-1.41-2.2-2.12l-2.59-2.5c-.27-.27-.27-.3,0-.54.83-.61,1.64-1.24,2.48-1.85l19.66-14.53a1.31,1.31,0,0,0,.43-.38m-18.83,17.3c.19.19.38.39.58.58l5.79,5.59,6.5,6.31,5.43,5.24q3.53,3.42,7.06,6.83,1.89,1.84,3.8,3.67c.37.36.37.37.11.8l-1.78,2.93L146.34,97c-3.75,6.17-4.17,6.94-7.92,13.11-.31.52-.34.43.19.74l13.18,7.66,5.32,3.1c.33.2.34.19.52-.14l.06-.12q2.22-4.2,4.43-8.39c4.17-7.91,5-10.42,9.2-18.32l10.24-19.43,10.71-20.29,7.11-13.48c.22-.43.21-.38-.21-.54l-13.23-5-5.25-2c-.29-.1-.29-.1-.42.18-.26.59-.51,1.17-.76,1.76q-2.53,6-5.09,11.93l-3.81,8.93c-1,2.23-1.91,4.45-2.86,6.68a1.38,1.38,0,0,1-.26.47l-.51-.6q-10.54-12.37-21.07-24.76c-.42-.49-.42-.49-.95-.11l-17.7,13.07c-.12.08-.26.14-.33.32"/><path class="cls-21" d="M145.76,34.44a1.31,1.31,0,0,1-.43.38L125.67,49.35l-2.48,1.85c-.32.24-.32.27,0,.54l2.59,2.5c.72.71,1.49,1.39,2.2,2.12s1.37,1.27,2,1.94,1.45,1.35,2.14,2.07,1.37,1.27,2,1.94,1.42,1.31,2.08,2,1.41,1.31,2.07,2,1.41,1.31,2.07,2,1.37,1.27,2,2,1.45,1.35,2.14,2.06,1.39,1.29,2,2,1.36,1.27,2,1.94,1.45,1.35,2.13,2.07,1.37,1.31,2.05,2a1.07,1.07,0,0,1,.18.19c.25.31.25.31,0,.65-1.29,2.15-2.59,4.29-3.88,6.43-.73,1.21-1.47,2.41-2.2,3.61l-5.16,8.52c-.75,1.24-1.5,2.48-2.26,3.72-1.64,2.71,0,0-1.62,2.74q-1.17,1.94-2.35,3.87c-.25.4-.51.8-.75,1.21s-.15.29.12.44l3.68,2.14,6.76,3.94q4.08,2.35,8.15,4.72l4.73,2.78a.57.57,0,0,1,.24.19l-2.46.17a.78.78,0,0,1-.49-.18l-5.63-3.27L132.2,112c-.52-.31-.46-.22-.18-.67,4.24-7,5.16-8.59,9.41-15.58l8.72-14.39a1,1,0,0,0,.08-.11c.15-.18.13-.32,0-.49-.7-.65-1.39-1.33-2.08-2l-6-5.83-5.4-5.22-6-5.78-4.3-4.16-6-5.78a3.61,3.61,0,0,0-.3-.25c0-.11.08-.22.11-.33.1,0,.16,0,.14-.1h0c.19.08.27-.11.39-.19l6.6-4.86,15.43-11.39a1.29,1.29,0,0,1,.68-.26c.77,0,1.53-.12,2.29-.13"/><path class="cls-21" d="M179,30.45c-.52,1.23-1.06,2.45-1.57,3.69-.79,1.89-1.61,3.77-2.42,5.65l-2.41,5.65c-.82,1.93-1.64,3.85-2.47,5.78S168.47,55,167.64,57c-.22.53-.44,1.07-.67,1.6-.05.11-.07.23-.19.3a1.9,1.9,0,0,1-.61-.62A8.6,8.6,0,0,1,165,56.81l3.68-8.64,4.72-11.05c.88-2.06,1.77-4.12,2.64-6.18a.5.5,0,0,1,.55-.38c.78,0,1.55-.12,2.33-.11"/><path class="cls-8" d="M126.93,51.74c.07-.18.21-.24.33-.32L145,38.35c.53-.38.53-.38.95.11Q156.44,50.85,167,63.22l.51.6a1.38,1.38,0,0,0,.26-.47c.95-2.23,1.9-4.45,2.86-6.68l3.81-8.93q2.55-6,5.09-11.93c.25-.59.5-1.17.76-1.76.13-.28.13-.28.42-.18l5.25,2,13.23,5c.42.16.43.11.21.54l-7.11,13.48L181.56,75.22,171.32,94.65c-4.17,7.9-5,10.41-9.2,18.32q-2.2,4.2-4.43,8.39l-.06.12c-.18.33-.19.34-.52.14l-5.32-3.1-13.18-7.66c-.53-.31-.5-.22-.19-.74,3.75-6.17,4.17-6.94,7.92-13.11l8.08-13.32,1.78-2.93c.26-.43.26-.44-.11-.8q-1.91-1.83-3.8-3.67-3.54-3.41-7.06-6.83l-5.43-5.24-6.5-6.31-5.79-5.59c-.2-.19-.39-.39-.58-.58"/><g class="cls-22"><rect class="cls-23" x="6.98" y="120.9" width="39.14" height="23.04"/></g><path class="cls-24" d="M154.31,134.39c11.65,1,34.85,4.61,34.85,4.61l-13.8,20.65,6.5,24.21s-21.28-3.34-32-4.18Z"/><g class="cls-25"><g class="cls-26"><polygon class="cls-24" points="165.89 140.49 170.64 136.29 173.39 136.67 166.58 174.59 153.43 180.01 149.78 179.52 165.89 140.49"/></g></g><path class="cls-24" d="M38.83,140.44c-11.65,2.13-34.67,8.11-34.67,8.11L20,167.71l-4.25,24.74s21.12-5.46,31.81-7.37Z"/><polygon class="cls-27" points="47.61 185 45.4 176.46 28.75 180.75 47.61 185"/><polygon class="cls-27" points="149.87 179.6 150.71 171.44 164.54 173.68 149.87 179.6"/><path class="cls-28" d="M164.24,173.84a283.19,283.19,0,0,0-136.9,7.09Q21.88,159,16.4,137a319.89,319.89,0,0,1,154.71-8l-6.87,44.83"/><path class="cls-11" d="M64.62,145.6a7.11,7.11,0,0,1-1.07,2.45,8.67,8.67,0,0,1-1.87,2,14.4,14.4,0,0,1-2.41,1.51,18.66,18.66,0,0,1-2.72,1.11,24.73,24.73,0,0,1-2.8.75c-.34.08-.75.16-1.23.25l-1.37.27-1.57.3,2.25,8.26c1.3-.24,2.61-.46,3.92-.68l.66,3.29c-3.67.87-7.33,1.82-10.95,2.85-.45-1.31-.91-2.62-1.36-3.94l2.61-.53q-2.72-10-5.49-20c-1.24.37-2.48.76-3.72,1.15-.41-1.38-.81-2.76-1.22-4.14.17-.06.49-.16.95-.29l1.7-.47,2.21-.6,2.51-.66c.86-.22,1.73-.43,2.6-.63s1.69-.39,2.46-.55c1-.21,2.06-.39,3.19-.54a25.52,25.52,0,0,1,3.36-.23,17.28,17.28,0,0,1,3.24.28,9.4,9.4,0,0,1,2.83,1,6.5,6.5,0,0,1,3.33,4.84,7.32,7.32,0,0,1,0,3m-6.81-3.91a4.69,4.69,0,0,0-1.85-.93,8,8,0,0,0-2.28-.2,15.05,15.05,0,0,0-2.3.29l-.38.08-.6.13-.73.18-.77.2-2,.49c.57,2.8,1.13,5.59,1.7,8.38l1.32-.27c.48-.09,1-.19,1.51-.31.94-.2,1.88-.44,2.84-.73a10.71,10.71,0,0,0,2.56-1.13,5,5,0,0,0,1.71-1.73,3.65,3.65,0,0,0,.29-2.56,3.24,3.24,0,0,0-1-1.89"/><path class="cls-11" d="M92.78,160q-5.76.6-11.44,1.46l-.72-4.38c1.42-.11,2.84-.22,4.26-.31-.65-1.44-1.3-2.88-2-4.32-3.33.44-6.65.93-10,1.5-.31,1.5-.61,3-.91,4.51l4.14-.21c0,1.2.1,2.41.16,3.61q-5.77.66-11.5,1.6L64.19,159l3-.2Q68.8,148.23,71,137.68l-2.61.4c-.33-1.48-.65-3-1-4.44,0,0,0-.08,0-.12q8.06-.89,16.14-1.3c.07,1.31.13,2.62.2,3.93l-2.76.34q4.73,9.9,8.81,20l2.87-.11c0,1.21.09,2.42.14,3.63M76.24,139q-1.26,5.28-2.38,10.55,3.66-.42,7.32-.73-2.39-4.94-4.94-9.82"/><path class="cls-11" d="M119.82,160.83q-5.68-.14-11.34,0c0-1.46,0-2.92,0-4.38l2.42.15q-2.82-4.29-5.86-8.53c-1.2,0-2.4-.06-3.6-.08q.21,4.26.39,8.52c1.32,0,2.65.08,4,.13,0,1.12,0,2.24,0,3.35-3.79.11-7.58.31-11.35.59-.18-1.38-.35-2.75-.52-4.13h2.71q-.45-10.32-1-20.64c-1.3.11-2.6.24-3.89.38-.09-1.44-.19-2.87-.28-4.3l1-.09,1.76-.12c.69-.05,1.46-.1,2.3-.14l2.61-.14c.9-.05,1.8-.08,2.69-.1l2.53,0c1,0,2.12,0,3.26.11a26.15,26.15,0,0,1,3.33.45,17.36,17.36,0,0,1,3.12.93,9.21,9.21,0,0,1,2.56,1.55,6.36,6.36,0,0,1,2.2,5.4,7.07,7.07,0,0,1-.81,3.06,7.8,7.8,0,0,1-1.88,2.28,10.19,10.19,0,0,1-2.64,1.59,15.49,15.49,0,0,1-3.14,1q3.34,4.67,6.41,9.42c1.2.11,2.39.23,3.58.36-.17,1.15-.35,2.3-.52,3.45m-7.52-23.44a4.4,4.4,0,0,0-1.62-1.28,8,8,0,0,0-2.2-.65,15.71,15.71,0,0,0-2.32-.18h-1l-1.55.06-2.05.09-.21,8.54c1.92,0,3.84-.08,5.77-.09a8.78,8.78,0,0,0,2.41-.36,5.44,5.44,0,0,0,1.8-.91,4,4,0,0,0,1.13-1.39,4.24,4.24,0,0,0,.43-1.78,3.17,3.17,0,0,0-.6-2.06"/><path class="cls-11" d="M145.79,163.07c-3.45-.43-6.9-.8-10.36-1.09l.6-4.17,3.23.45q-2.81-4.53-5.86-9-2.37,2.07-4.66,4.2l-.48,3.75,3.54.46c-.17,1.1-.33,2.19-.5,3.29-3.81-.29-7.64-.48-11.45-.58,0-1.37,0-2.74,0-4.11,1.29.13,2.58.27,3.86.42q.61-10.2,1.12-20.4l-3.23-.08.15-4.38q6.61.65,13.19,1.6c-.23,1.14-.46,2.29-.68,3.43-1.2-.08-2.39-.16-3.58-.22q-.66,5.76-1.34,11.51Q134.81,143,140.67,138l-3-.48c.17-1.19.35-2.38.52-3.57,4.12.47,8.22,1,12.33,1.68-.18,1.37-.35,2.75-.53,4.12-1.22-.26-2.45-.52-3.68-.76q-5,3.66-9.65,7.5,4,6.22,7.54,12.57l2.38.42c-.27,1.2-.54,2.41-.81,3.6"/><path class="cls-7" d="M66,143.47a7.2,7.2,0,0,1-1.07,2.45,8.83,8.83,0,0,1-1.86,2,15.08,15.08,0,0,1-2.41,1.51,20.94,20.94,0,0,1-2.72,1.11,25.91,25.91,0,0,1-2.8.75l-1.23.25-1.38.26-1.57.31c.76,2.75,1.5,5.5,2.25,8.25l3.92-.68c.22,1.1.45,2.2.67,3.3-3.68.86-7.34,1.82-11,2.85-.45-1.31-.9-2.63-1.36-3.94l2.61-.53q-2.7-10-5.48-20c-1.25.38-2.49.76-3.73,1.16-.4-1.38-.81-2.77-1.22-4.15l1-.29,1.69-.47,2.22-.6,2.5-.66c.86-.22,1.73-.43,2.6-.63l2.46-.54c1-.22,2.06-.4,3.19-.55a25.52,25.52,0,0,1,3.36-.23,17.2,17.2,0,0,1,3.24.29,9,9,0,0,1,2.84,1,6.79,6.79,0,0,1,2.14,1.89A6.87,6.87,0,0,1,66,140.5a7.2,7.2,0,0,1,0,3m-6.81-3.92a4.48,4.48,0,0,0-1.85-.92,7.38,7.38,0,0,0-2.28-.2,15.07,15.07,0,0,0-2.3.28l-.38.08-.59.14-.74.17-.77.2-2,.5q.84,4.19,1.69,8.38c.4-.1.84-.19,1.32-.28l1.51-.3c.94-.2,1.89-.45,2.85-.74a10.26,10.26,0,0,0,2.55-1.13A5,5,0,0,0,59.93,144a3.54,3.54,0,0,0,.29-2.56,3.24,3.24,0,0,0-1-1.89"/><path class="cls-7" d="M94.16,157.85q-5.75.59-11.44,1.46c-.24-1.46-.47-2.92-.71-4.38,1.42-.12,2.83-.23,4.25-.32-.65-1.44-1.3-2.88-2-4.31q-5,.64-10,1.49c-.3,1.51-.61,3-.9,4.51,1.37-.08,2.76-.15,4.13-.21.05,1.21.1,2.41.16,3.61-3.84.45-7.68,1-11.49,1.6-.23-1.48-.45-3-.67-4.46l3-.2q1.62-10.56,3.81-21.09c-.87.12-1.74.26-2.61.39-.32-1.48-.65-3-1-4.44l0-.12q8.05-.88,16.14-1.29c.07,1.31.13,2.61.2,3.92l-2.76.34q4.74,9.92,8.81,20l2.88-.11c0,1.21.08,2.43.13,3.64m-16.54-21q-1.26,5.26-2.38,10.55,3.66-.42,7.32-.74c-1.59-3.28-3.23-6.56-4.94-9.81"/><path class="cls-7" d="M121.21,158.7c-3.79-.09-7.58-.1-11.35,0,0-1.46,0-2.93,0-4.39l2.43.16q-2.83-4.31-5.87-8.54l-3.6-.08c.14,2.84.26,5.69.39,8.53,1.33,0,2.65.07,4,.12l0,3.36q-5.7.17-11.36.58c-.17-1.37-.34-2.75-.52-4.12H98q-.45-10.32-1-20.64l-3.9.38-.27-4.3,1-.09,1.76-.12,2.31-.14,2.6-.14,2.69-.09c.9,0,1.75,0,2.53,0,1,0,2.13,0,3.26.1a26.31,26.31,0,0,1,3.34.46,17.26,17.26,0,0,1,3.11.93,8.84,8.84,0,0,1,2.56,1.55,6.47,6.47,0,0,1,1.69,2.28,6.64,6.64,0,0,1,.51,3.11,7,7,0,0,1-.8,3.07,7.79,7.79,0,0,1-1.88,2.27,10.87,10.87,0,0,1-2.64,1.6,17.2,17.2,0,0,1-3.15,1q3.34,4.67,6.42,9.41l3.57.36c-.17,1.15-.35,2.3-.51,3.46m-7.53-23.45a4.46,4.46,0,0,0-1.62-1.27,8,8,0,0,0-2.2-.66,15.61,15.61,0,0,0-2.32-.18l-1,0c-.5,0-1,0-1.54.06l-2.05.08q-.12,4.27-.22,8.54c1.92-.05,3.84-.08,5.77-.08a9.25,9.25,0,0,0,2.42-.37,5.49,5.49,0,0,0,1.79-.91,4.11,4.11,0,0,0,1.14-1.39,4.35,4.35,0,0,0,.42-1.78,3.13,3.13,0,0,0-.6-2.06"/><path class="cls-7" d="M147.17,160.94q-5.17-.66-10.35-1.1c.19-1.39.39-2.78.58-4.17l3.24.45q-2.79-4.53-5.86-9-2.37,2.08-4.65,4.2c-.17,1.25-.33,2.5-.49,3.76,1.18.14,2.36.3,3.54.46-.16,1.09-.33,2.19-.49,3.28q-5.73-.42-11.46-.58c0-1.37,0-2.74,0-4.11,1.28.13,2.57.27,3.85.43q.62-10.2,1.13-20.4c-1.08,0-2.16-.06-3.24-.08l.15-4.39c4.42.43,8.81,1,13.2,1.61l-.69,3.42-3.58-.22q-.66,5.76-1.34,11.52,5.43-5.19,11.3-10.15l-3-.49c.17-1.19.34-2.37.52-3.56q6.17.69,12.32,1.67c-.17,1.38-.35,2.75-.52,4.12l-3.69-.76q-5,3.67-9.65,7.5,4,6.24,7.55,12.58l2.37.42-.81,3.6"/><path class="cls-29" d="M29.28,94.54a18.92,18.92,0,0,1-2,.08,34.85,34.85,0,0,1-7.9-.65,21.92,21.92,0,0,1-8.74-3.86A22.67,22.67,0,0,1,5.75,85a13.63,13.63,0,0,1-1.1-2.11,35.89,35.89,0,0,1-2.63-7,24.59,24.59,0,0,1-.53-2.69,1.38,1.38,0,0,0-.2-.69l-.12-2.83a1,1,0,0,0,.13-.58A17.76,17.76,0,0,1,5.73,58.35a30.07,30.07,0,0,1,6.83-5.69A43.44,43.44,0,0,1,19,49.4a68,68,0,0,1,7.57-2.8,26.22,26.22,0,0,1,6.47-1.08.19.19,0,0,1-.2.14,8.64,8.64,0,0,0-1.52.27,43.71,43.71,0,0,0-5.27,1.57c-1.59.59-3.14,1.25-4.7,1.92a42.35,42.35,0,0,0-5.56,2.77A36.18,36.18,0,0,0,10.6,56a21.46,21.46,0,0,0-2.8,3A19.21,19.21,0,0,0,5.36,63.2,17.58,17.58,0,0,0,4,69.67a21.42,21.42,0,0,0,.43,4.65,31.72,31.72,0,0,0,1.4,4.86,41,41,0,0,0,1.92,4.35A11,11,0,0,0,8.55,85a23.92,23.92,0,0,0,3.58,3.94c.53.45,1.06.89,1.62,1.29a21,21,0,0,0,6.36,3.09,26.21,26.21,0,0,0,5.84,1,28.67,28.67,0,0,0,3.47.11h.25a.09.09,0,0,1,0,0l-.38.07"/><path class="cls-20" d="M29.28,94.54l.38-.07a.09.09,0,0,0,0,0h-.25A28.67,28.67,0,0,1,26,94.32a26.21,26.21,0,0,1-5.84-1,21,21,0,0,1-6.36-3.09c-.56-.4-1.09-.84-1.62-1.29A23.92,23.92,0,0,1,8.55,85a11,11,0,0,1-.78-1.43,41,41,0,0,1-1.92-4.35,31.72,31.72,0,0,1-1.4-4.86A21.42,21.42,0,0,1,4,69.67,17.58,17.58,0,0,1,5.36,63.2,19.21,19.21,0,0,1,7.8,59a21.46,21.46,0,0,1,2.8-3,36.18,36.18,0,0,1,5.21-3.83,42.35,42.35,0,0,1,5.56-2.77c1.56-.67,3.11-1.33,4.7-1.92a43.71,43.71,0,0,1,5.27-1.57,7.81,7.81,0,0,1,1.52-.27.19.19,0,0,0,.2-.14,7.75,7.75,0,0,1,1.27-.09,17.56,17.56,0,0,1,6.69.62,17.13,17.13,0,0,1,6.4,3.73A30.83,30.83,0,0,1,53,56.66c.64,1,1.24,2.07,1.86,3.11.2.33.2.33-.13.52L50,63.06,37.82,70.22c-.19.11-.35.28-.58.29a6.32,6.32,0,0,0-.7-.85,27.26,27.26,0,0,0-3.29-3.42,10,10,0,0,0-2.78-1.76,4,4,0,0,0-2.14-.37,1.69,1.69,0,0,0-1,.37.72.72,0,0,0-.44.18A5.71,5.71,0,0,0,24.48,68a10.56,10.56,0,0,0-.36,3,4.93,4.93,0,0,0,.07.66,2.1,2.1,0,0,0,1.23,1.62,7.91,7.91,0,0,0,2.43.62,19.74,19.74,0,0,0,3.26.09c1,0,2-.18,3-.27,1.81-.17,3.61-.36,5.42-.49,2.26-.16,4.52-.35,6.79-.38a34.12,34.12,0,0,1,6.77.47,8.91,8.91,0,0,1,2.14.81,29.07,29.07,0,0,1,10.36,8.37,34,34,0,0,1,5.47,10,1.24,1.24,0,0,0,.24.55,2.64,2.64,0,0,0,.11.56,22.53,22.53,0,0,1,.81,3.64c0,.36.07.73.13,1.09a24.74,24.74,0,0,1,.26,2.85c0,.43,0,.87,0,1.31s-.06,1-.08,1.45a11.73,11.73,0,0,0-.13,1.57c-.1,0-.08.15-.1.23a17,17,0,0,1-3.94,7.94,35.86,35.86,0,0,1-5.12,4.73c-1.66,1.31-3.36,2.58-5.12,3.77a29.43,29.43,0,0,1-4.42,2.39,33,33,0,0,1-7.8,2.48,25.12,25.12,0,0,1-3,.35c-.57,0-1.14.09-1.71.1a4.76,4.76,0,0,0-.83-.08c-.77,0-1.52-.1-2.28-.18a19.18,19.18,0,0,1-3.35-.7,21,21,0,0,1-3.33-1.29,19,19,0,0,1-4.08-2.6,23,23,0,0,1-2.66-2.57,26.84,26.84,0,0,1-2.89-4.05,26.51,26.51,0,0,1-1.44-2.93c-.44-1-.82-2.1-1.19-3.17-.12-.38-.11-.38.24-.59.91-.52,1.82-1,2.72-1.56,1.16-.68,2.31-1.36,3.45-2,1.47-.9,2.92-1.82,4.4-2.7s3-1.76,4.47-2.59a.79.79,0,0,0,.36-.24c.21-.07.25.11.33.22.4.6.79,1.21,1.18,1.81a20.14,20.14,0,0,0,2.84,3.54,9.22,9.22,0,0,0,5.32,2.73,5.35,5.35,0,0,0,.8,0,.56.56,0,0,0,.34.05,14.59,14.59,0,0,0,2.19-.18,7.32,7.32,0,0,0,5.12-3.43,7.24,7.24,0,0,0,1.3-4.57,5.92,5.92,0,0,0-1-2.91,7.3,7.3,0,0,0-1.91-1.93,10.66,10.66,0,0,0-3.17-1.61,15.53,15.53,0,0,0-4.4-.5c-.79,0-1.58.06-2.38.1a.65.65,0,0,0-.43.07c-2.11.08-4.21.35-6.31.5-1.41.11-2.82.18-4.22.27a4,4,0,0,1-1.09.05M41.94,91a29.71,29.71,0,0,1,3.13,0c.43,0,.86.06,1.28.1a12.29,12.29,0,0,1,7.9,3.74,8.38,8.38,0,0,1,2.3,8.25A10.62,10.62,0,0,1,52,109.57a9.72,9.72,0,0,1-4.37,1.56,12,12,0,0,1-6.45-.79,13.5,13.5,0,0,1-4.68-3.48,25.45,25.45,0,0,1-2.16-2.8c-.28-.42-.23-.38-.64-.15-.77.44-1.53.89-2.29,1.35-3,1.78-5.89,3.64-8.89,5.37-.36.21-.36.21-.21.61a23.87,23.87,0,0,0,3.29,6,18.91,18.91,0,0,0,8.47,6.43,21.4,21.4,0,0,0,11.54.88,29.85,29.85,0,0,0,6.52-2,26.91,26.91,0,0,0,4.41-2.33q3-2,5.75-4.27a29.87,29.87,0,0,0,4.5-4.35,13.94,13.94,0,0,0,3.05-6.73,20.66,20.66,0,0,0,.11-5,27.21,27.21,0,0,0-.51-3.59,30.45,30.45,0,0,0-5.65-11.87,26.71,26.71,0,0,0-9.53-7.93A6.22,6.22,0,0,0,52.9,76a26.36,26.36,0,0,0-5.09-.48c-1.43,0-2.86,0-4.29.13s-3,.24-4.44.38c-1.67.15-3.34.32-5,.46a35.44,35.44,0,0,1-6.35.07,9.89,9.89,0,0,1-3.33-.83,4.58,4.58,0,0,1-2.59-3,6.16,6.16,0,0,1-.23-1.21,10.74,10.74,0,0,1,.23-3.2,7.94,7.94,0,0,1,2.88-5.22,6.06,6.06,0,0,1,6-1.28,10.12,10.12,0,0,1,3,1.5,22.84,22.84,0,0,1,3.9,3.58c.27.31.27.31.64.1l13-7.61c.36-.21.36-.22.15-.57A41.47,41.47,0,0,0,49,55.37a22.72,22.72,0,0,0-4.61-4.73A13.43,13.43,0,0,0,35.62,48a23.22,23.22,0,0,0-5.3.89A71,71,0,0,0,21.4,52.2a35.83,35.83,0,0,0-6.2,3.46A24.24,24.24,0,0,0,10.32,60a15.31,15.31,0,0,0-3.54,7.59,18.63,18.63,0,0,0,.41,7.32,34.27,34.27,0,0,0,2.72,7.21,8.73,8.73,0,0,0,.66,1.25A19.64,19.64,0,0,0,17,89.22a22.58,22.58,0,0,0,9.51,2.58,48.63,48.63,0,0,0,5.79,0l1-.08c.69,0,1.39-.09,2.08-.15,2.15-.21,4.3-.41,6.47-.53"/><path class="cls-29" d="M34.81,100.3a.88.88,0,0,1-.36.24c-1.51.83-3,1.7-4.47,2.59s-2.93,1.8-4.4,2.7c-1.14.69-2.29,1.38-3.45,2-.9.53-1.81,1-2.72,1.56-.35.21-.36.21-.24.59.37,1.07.75,2.13,1.19,3.17a26.51,26.51,0,0,0,1.44,2.93,26.84,26.84,0,0,0,2.89,4.05,23,23,0,0,0,2.66,2.57,19,19,0,0,0,4.08,2.6,21,21,0,0,0,3.33,1.29,19.18,19.18,0,0,0,3.35.7c.76.08,1.51.17,2.28.18a4.76,4.76,0,0,1,.83.08,27.26,27.26,0,0,1-5,0,21.5,21.5,0,0,1-16-9.52,28.46,28.46,0,0,1-3.29-6.57c-.17-.47-.33-1-.52-1.41-.1-.24,0-.33.17-.44,1-.58,2.08-1.16,3.11-1.78,2.78-1.67,5.55-3.38,8.34-5,1.32-.79,2.66-1.53,4-2.29a.87.87,0,0,1,.42-.14c.81,0,1.61-.12,2.42-.11"/><path class="cls-29" d="M40.9,93.72a.65.65,0,0,1,.43-.07c.8,0,1.59-.11,2.38-.1a15.53,15.53,0,0,1,4.4.5,10.66,10.66,0,0,1,3.17,1.61,7.16,7.16,0,0,1,1.91,1.93,5.92,5.92,0,0,1,1,2.91,7.29,7.29,0,0,1-1.3,4.58,8,8,0,0,1-3,2.72,7.87,7.87,0,0,1-2.17.7,14.59,14.59,0,0,1-2.19.18.56.56,0,0,1-.34-.05,8,8,0,0,0,6.12-6.4,6,6,0,0,0-1.95-5.63,10,10,0,0,0-6.3-2.78c-.74,0-1.5-.09-2.25-.1"/><path class="cls-29" d="M27.32,64.48a1.69,1.69,0,0,1,1-.37,4,4,0,0,1,2.14.37,10,10,0,0,1,2.78,1.76,27.26,27.26,0,0,1,3.29,3.42,6.32,6.32,0,0,1,.7.85l-2.34.17a.64.64,0,0,1-.6-.25c-.81-1-1.6-1.93-2.49-2.81a16.62,16.62,0,0,0-2.57-2.16,10.52,10.52,0,0,0-1.92-1"/><path class="cls-8" d="M41.94,91c-2.17.12-4.32.32-6.47.53-.69.06-1.39.1-2.08.15l-1,.08a48.63,48.63,0,0,1-5.79,0A22.58,22.58,0,0,1,17,89.22a19.64,19.64,0,0,1-6.47-5.86,8.73,8.73,0,0,1-.66-1.25A34.27,34.27,0,0,1,7.19,74.9a18.63,18.63,0,0,1-.41-7.32A15.31,15.31,0,0,1,10.32,60a24.24,24.24,0,0,1,4.88-4.33,35.83,35.83,0,0,1,6.2-3.46,71,71,0,0,1,8.92-3.36,23.22,23.22,0,0,1,5.3-.89,13.43,13.43,0,0,1,8.78,2.69A22.72,22.72,0,0,1,49,55.37a41.47,41.47,0,0,1,2.31,3.45c.21.35.21.36-.15.57L38.22,67c-.37.21-.37.21-.64-.1a22.84,22.84,0,0,0-3.9-3.58,10.12,10.12,0,0,0-3-1.5,6.06,6.06,0,0,0-6,1.28,7.94,7.94,0,0,0-2.88,5.22,10.74,10.74,0,0,0-.23,3.2,6.16,6.16,0,0,0,.23,1.21,4.58,4.58,0,0,0,2.59,3,9.89,9.89,0,0,0,3.33.83,35.44,35.44,0,0,0,6.35-.07c1.68-.14,3.35-.31,5-.46,1.48-.14,3-.25,4.44-.38s2.86-.13,4.29-.13A26.36,26.36,0,0,1,52.9,76a6.22,6.22,0,0,1,1.39.56,26.71,26.71,0,0,1,9.53,7.93,30.45,30.45,0,0,1,5.65,11.87A27.21,27.21,0,0,1,70,99.91a20.66,20.66,0,0,1-.11,5,13.94,13.94,0,0,1-3.05,6.73,29.87,29.87,0,0,1-4.5,4.35q-2.79,2.27-5.75,4.27a26.91,26.91,0,0,1-4.41,2.33,29.85,29.85,0,0,1-6.52,2,21.4,21.4,0,0,1-11.54-.88,18.91,18.91,0,0,1-8.47-6.43,23.87,23.87,0,0,1-3.29-6c-.15-.4-.15-.4.21-.61,3-1.73,5.92-3.59,8.89-5.37.76-.46,1.52-.91,2.29-1.35.41-.23.36-.27.64.15a25.45,25.45,0,0,0,2.16,2.8,13.5,13.5,0,0,0,4.68,3.48,12,12,0,0,0,6.45.79A9.72,9.72,0,0,0,52,109.57a10.62,10.62,0,0,0,4.52-6.47,8.38,8.38,0,0,0-2.3-8.25,12.29,12.29,0,0,0-7.9-3.74c-.42,0-.85-.08-1.28-.1a29.71,29.71,0,0,0-3.13,0"/></g></g></svg>